<?xml version="1.0" standalone="no"?>
<!DOCTYPE svg PUBLIC "-//W3C//DTD SVG 20010904//EN"
 "http://www.w3.org/TR/2001/REC-SVG-20010904/DTD/svg10.dtd">
<svg version="1.0" xmlns="http://www.w3.org/2000/svg"
 width="607.000000pt" height="607.000000pt" viewBox="0 0 607.000000 607.000000"
 preserveAspectRatio="xMidYMid meet">
<metadata>
Created by potrace 1.14, written by Peter Selinger 2001-2017
</metadata>
<g transform="translate(0.000000,607.000000) scale(0.100000,-0.100000)"
fill="#000000" stroke="none">
<path d="M1555 3027 l0 -3022 425 0 425 0 0 2202 c0 1426 3 2202 10 2200 8 -3
37 -94 51 -166 3 -14 14 -57 25 -97 11 -40 22 -81 24 -91 8 -35 84 -329 170
-658 20 -77 38 -147 40 -155 2 -8 19 -76 38 -150 70 -267 159 -615 164 -639 2
-14 7 -29 10 -34 3 -6 12 -35 19 -66 6 -31 28 -117 47 -191 20 -74 54 -205 76
-290 21 -85 56 -218 76 -295 20 -77 50 -194 66 -260 17 -66 37 -140 44 -165 8
-25 16 -56 19 -70 2 -14 32 -131 66 -260 34 -129 63 -242 65 -250 2 -8 26
-105 55 -215 29 -110 54 -209 56 -219 2 -10 8 -33 13 -50 5 -17 12 -43 15 -58
l6 -28 485 0 485 0 0 3025 0 3025 -415 -1 c-384 0 -415 -1 -416 -17 0 -9 -1
-826 -1 -1815 -1 -989 -4 -1800 -8 -1802 -6 -4 -42 112 -55 175 -2 8 -38 150
-80 315 -42 165 -79 307 -80 315 -2 8 -18 69 -35 135 -17 66 -64 251 -105 410
-41 160 -93 362 -115 450 -23 88 -50 194 -60 235 -10 41 -20 82 -24 90 -3 8
-8 26 -10 40 -3 14 -30 124 -61 245 -32 121 -58 228 -60 238 -2 9 -6 21 -9 25
-3 5 -8 24 -11 43 -3 19 -22 94 -41 167 -91 350 -103 399 -108 422 -7 33 -53
211 -72 277 l-14 52 -598 0 -597 0 0 -3022z"/>
</g>
</svg>
